<svg width="72" height="48" viewBox="0 0 72 48" fill="none" xmlns="http://www.w3.org/2000/svg">
<g clip-path="url(#clip0_24_1016)">
<path d="M51.6803 31.0984H20.3193V0H51.6777V31.0984H51.6803ZM21.3556 30.0734H50.6441V1.02499H21.3556V30.0734V30.0734Z" fill="black"/>
<path d="M46.2225 20.6293H36.3931L36.798 19.665H46.2225V20.6293Z" fill="black"/>
<path d="M42.6236 6.11304H41.6113L47.1334 24.9855H48.1456L42.6236 6.11304Z" fill="black"/>
<path d="M39.4777 6.11304L32.0191 23.9104L26.814 6.11304H25.8018L31.3212 24.9855H32.6211L40.5299 6.11304H39.4777Z" fill="black"/>
<path d="M24.8268 6.11304H23.8545V24.9855H24.8268V6.11304Z" fill="black"/>
<path d="M37.8475 6.11304L26.6675 32.7918H27.0404L38.2204 6.11304H37.8475Z" fill="black"/>
<path d="M2.05113 41.9719L0.551408 43.3271V45.0231H0V36.905H0.551408V42.6481L4.23545 39.3116H4.94136L2.45869 41.6205L5.18377 45.0231H4.49917L2.05113 41.9719V41.9719Z" fill="black"/>
<path d="M7.03247 44.6954C6.5956 44.4471 6.25197 44.1037 6.00157 43.6625C5.75118 43.2214 5.62598 42.7247 5.62598 42.1699C5.62598 41.6152 5.75118 41.1185 6.00157 40.6774C6.25197 40.2362 6.5956 39.8928 7.03247 39.6445C7.46933 39.3961 7.95947 39.272 8.50555 39.272C9.05163 39.272 9.54177 39.3961 9.97863 39.6445C10.4155 39.8928 10.7591 40.2362 11.0095 40.6774C11.2599 41.1185 11.3851 41.6152 11.3851 42.1699C11.3851 42.7247 11.2599 43.2214 11.0095 43.6625C10.7591 44.1037 10.4155 44.4471 9.97863 44.6954C9.54177 44.9438 9.04897 45.0679 8.50555 45.0679C7.96213 45.0679 7.46933 44.9438 7.03247 44.6954ZM9.69094 44.2675C10.0399 44.0641 10.3169 43.7788 10.5194 43.4142C10.7218 43.0496 10.8231 42.6349 10.8231 42.1673C10.8231 41.6997 10.7218 41.285 10.5194 40.9204C10.3169 40.5558 10.0426 40.2705 9.69094 40.0671C9.34199 39.8637 8.94508 39.7607 8.50555 39.7607C8.06602 39.7607 7.66912 39.8637 7.32016 40.0671C6.9712 40.2705 6.69416 40.5558 6.49171 40.9204C6.28926 41.285 6.18804 41.6997 6.18804 42.1673C6.18804 42.6349 6.28926 43.0496 6.49171 43.4142C6.69416 43.7788 6.96853 44.0641 7.32016 44.2675C7.66912 44.4709 8.06602 44.5739 8.50555 44.5739C8.94508 44.5739 9.34199 44.4709 9.69094 44.2675Z" fill="black"/>
<path d="M13.2256 44.8591C12.8074 44.7218 12.4798 44.5448 12.2427 44.3334L12.4957 43.8949C12.7302 44.093 13.0338 44.2568 13.4068 44.3863C13.777 44.5184 14.1659 44.5844 14.5708 44.5844C15.1516 44.5844 15.5804 44.4893 15.8548 44.2991C16.1318 44.1089 16.2677 43.8474 16.2677 43.5119C16.2677 43.2715 16.1931 43.0813 16.0413 42.9439C15.8894 42.8065 15.7056 42.7035 15.4845 42.6374C15.2634 42.5714 14.9598 42.5027 14.5682 42.4288C14.1127 42.3495 13.7451 42.2623 13.4654 42.1672C13.1857 42.0721 12.9459 41.9189 12.7488 41.7076C12.549 41.4962 12.4505 41.2056 12.4505 40.8331C12.4505 40.3814 12.6396 40.0063 13.0178 39.7104C13.3961 39.4145 13.9342 39.2666 14.6348 39.2666C15.0024 39.2666 15.3673 39.3168 15.7269 39.4198C16.0865 39.5228 16.3822 39.6576 16.6087 39.824L16.3556 40.2625C16.1212 40.0961 15.8521 39.9667 15.5511 39.8795C15.2501 39.7923 14.9411 39.7474 14.6241 39.7474C14.086 39.7474 13.6838 39.8451 13.4094 40.0433C13.1377 40.2414 13.0019 40.5003 13.0019 40.8199C13.0019 41.0762 13.0791 41.2743 13.2336 41.417C13.3881 41.5596 13.5772 41.6653 13.801 41.734C14.0248 41.8027 14.3391 41.8793 14.744 41.9585C15.1915 42.0378 15.5538 42.125 15.8308 42.2148C16.1079 42.3072 16.3396 42.4525 16.5314 42.6586C16.7232 42.862 16.8191 43.1447 16.8191 43.5013C16.8191 43.9742 16.6193 44.3546 16.2224 44.6399C15.8255 44.9252 15.2661 45.0678 14.5469 45.0678C14.0834 45.0678 13.6412 44.9992 13.223 44.8591H13.2256Z" fill="black"/>
<path d="M27.2185 39.8928C27.6261 40.3076 27.8312 40.9073 27.8312 41.6866V45.0231H27.2798V41.7315C27.2798 41.0895 27.1226 40.6008 26.8056 40.2653C26.4886 39.9298 26.0491 39.7634 25.4817 39.7634C24.8344 39.7634 24.3203 39.9642 23.942 40.3657C23.5638 40.7672 23.3747 41.3061 23.3747 41.9851V45.0257H22.8232V41.7341C22.8232 41.0922 22.6661 40.6034 22.3491 40.2679C22.0321 39.9324 21.5926 39.766 21.0252 39.766C20.3779 39.766 19.8638 39.9668 19.4855 40.3683C19.1072 40.7699 18.9181 41.3088 18.9181 41.9877V45.0284H18.3667V39.3169H18.8968V40.5427C19.0886 40.1411 19.3736 39.8294 19.7519 39.6075C20.1301 39.3856 20.5803 39.2747 21.1024 39.2747C21.6245 39.2747 22.0667 39.3909 22.4317 39.626C22.7966 39.8585 23.055 40.2019 23.2095 40.6536C23.4013 40.231 23.6996 39.8955 24.1072 39.6471C24.5148 39.3988 24.9916 39.2747 25.535 39.2747C26.2489 39.2747 26.8083 39.4834 27.2185 39.8981V39.8928Z" fill="black"/>
<path d="M34.9783 42.2994H30.0263C30.0396 42.7432 30.1542 43.1394 30.3673 43.4855C30.5804 43.8316 30.8681 44.101 31.233 44.2886C31.598 44.4788 32.0082 44.5739 32.4637 44.5739C32.8393 44.5739 33.1856 44.5078 33.5053 44.3705C33.8249 44.2357 34.0913 44.0376 34.3044 43.7734L34.6241 44.1354C34.3737 44.4339 34.0593 44.6637 33.6811 44.8248C33.3028 44.986 32.8926 45.0652 32.4504 45.0652C31.8777 45.0652 31.3662 44.9411 30.916 44.6928C30.4685 44.4444 30.1169 44.101 29.8638 43.6651C29.6108 43.2266 29.4829 42.7273 29.4829 42.1673C29.4829 41.6072 29.6028 41.1159 29.8425 40.6747C30.0823 40.2335 30.4099 39.8901 30.8308 39.6418C31.249 39.3934 31.7205 39.2693 32.2426 39.2693C32.7647 39.2693 33.2336 39.3908 33.6491 39.6365C34.0647 39.8822 34.3923 40.223 34.632 40.6588C34.8718 41.0974 34.9917 41.5914 34.9917 42.1461L34.981 42.2994H34.9783ZM31.1505 40.0195C30.8255 40.1992 30.5671 40.4501 30.3726 40.7751C30.1782 41.1 30.0663 41.4672 30.037 41.874H34.4482C34.4269 41.4646 34.3151 41.1 34.1179 40.7804C33.9208 40.4607 33.6571 40.2071 33.3348 40.0248C33.0125 39.8425 32.6475 39.7501 32.2426 39.7501C31.8377 39.7501 31.4754 39.8399 31.1505 40.0169V40.0195Z" fill="black"/>
<path d="M39.5576 44.6611C39.419 44.7932 39.2432 44.8936 39.0328 44.9622C38.8223 45.0309 38.6039 45.0653 38.3775 45.0653C37.8767 45.0653 37.4904 44.9279 37.2187 44.6558C36.947 44.3811 36.8112 44.0007 36.8112 43.5119V39.7818H35.751V39.3116H36.8112V38.0647H37.3626V39.3116H39.1926V39.7818H37.3626V43.4565C37.3626 43.8289 37.4531 44.1116 37.6316 44.3045C37.8128 44.4973 38.0791 44.595 38.4308 44.595C38.7824 44.595 39.0887 44.4894 39.3231 44.278L39.5549 44.6611H39.5576Z" fill="black"/>
<path d="M41.6594 44.6954C41.2226 44.4471 40.8789 44.1037 40.6285 43.6625C40.3781 43.2214 40.2529 42.7247 40.2529 42.1699C40.2529 41.6152 40.3781 41.1185 40.6285 40.6774C40.8789 40.2362 41.2226 39.8928 41.6594 39.6445C42.0963 39.3961 42.5864 39.272 43.1325 39.272C43.6786 39.272 44.1687 39.3961 44.6056 39.6445C45.0424 39.8928 45.3861 40.2362 45.6365 40.6774C45.8869 41.1185 46.0121 41.6152 46.0121 42.1699C46.0121 42.7247 45.8869 43.2214 45.6365 43.6625C45.3861 44.1037 45.0424 44.4471 44.6056 44.6954C44.1687 44.9438 43.6759 45.0679 43.1325 45.0679C42.5891 45.0679 42.0963 44.9438 41.6594 44.6954ZM44.3179 44.2675C44.6669 44.0641 44.9439 43.7788 45.1463 43.4142C45.3488 43.0496 45.45 42.6349 45.45 42.1673C45.45 41.6997 45.3488 41.285 45.1463 40.9204C44.9439 40.5558 44.6695 40.2705 44.3179 40.0671C43.9689 39.8637 43.572 39.7607 43.1325 39.7607C42.693 39.7607 42.2961 39.8637 41.9471 40.0671C41.5982 40.2705 41.3211 40.5558 41.1187 40.9204C40.9162 41.285 40.815 41.6997 40.815 42.1673C40.815 42.6349 40.9162 43.0496 41.1187 43.4142C41.3211 43.7788 41.5955 44.0641 41.9471 44.2675C42.2961 44.4709 42.693 44.5739 43.1325 44.5739C43.572 44.5739 43.9689 44.4709 44.3179 44.2675Z" fill="black"/>
<path d="M47.7192 36.905H48.2706V45.0231H47.7192V36.905Z" fill="black"/>
<path d="M51.3767 44.6954C50.9398 44.4471 50.5962 44.1037 50.3458 43.6625C50.0954 43.2214 49.9702 42.7247 49.9702 42.1699C49.9702 41.6152 50.0954 41.1185 50.3458 40.6774C50.5962 40.2362 50.9398 39.8928 51.3767 39.6445C51.8136 39.3961 52.3037 39.272 52.8498 39.272C53.3959 39.272 53.886 39.3961 54.3229 39.6445C54.7597 39.8928 55.1034 40.2362 55.3538 40.6774C55.6042 41.1185 55.7294 41.6152 55.7294 42.1699C55.7294 42.7247 55.6042 43.2214 55.3538 43.6625C55.1034 44.1037 54.7597 44.4471 54.3229 44.6954C53.886 44.9438 53.3932 45.0679 52.8498 45.0679C52.3064 45.0679 51.8136 44.9438 51.3767 44.6954ZM54.0352 44.2675C54.3841 44.0641 54.6612 43.7788 54.8636 43.4142C55.0661 43.0496 55.1673 42.6349 55.1673 42.1673C55.1673 41.6997 55.0661 41.285 54.8636 40.9204C54.6612 40.5558 54.3868 40.2705 54.0352 40.0671C53.6862 39.8637 53.2893 39.7607 52.8498 39.7607C52.4103 39.7607 52.0134 39.8637 51.6644 40.0671C51.3154 40.2705 51.0384 40.5558 50.836 40.9204C50.6335 41.285 50.5323 41.6997 50.5323 42.1673C50.5323 42.6349 50.6335 43.0496 50.836 43.4142C51.0384 43.7788 51.3128 44.0641 51.6644 44.2675C52.0134 44.4709 52.4103 44.5739 52.8498 44.5739C53.2893 44.5739 53.6862 44.4709 54.0352 44.2675Z" fill="black"/>
<path d="M62.6232 39.3115V44.41C62.6232 45.3584 62.3914 46.0584 61.9279 46.5102C61.4644 46.9619 60.7665 47.1891 59.8315 47.1891C59.3014 47.1891 58.8006 47.1098 58.3318 46.9487C57.8603 46.7876 57.4821 46.5656 57.1944 46.2803L57.4927 45.8656C57.7804 46.1271 58.124 46.3332 58.5289 46.4785C58.9338 46.6238 59.3627 46.6977 59.8209 46.6977C60.5854 46.6977 61.1528 46.5181 61.5204 46.1562C61.888 45.7943 62.0718 45.2342 62.0718 44.476V43.5145C61.8374 43.9292 61.5097 44.2515 61.0888 44.476C60.6706 44.7032 60.1991 44.8142 59.677 44.8142C59.1549 44.8142 58.6515 44.6953 58.2146 44.4575C57.7777 44.2198 57.4341 43.8896 57.1837 43.4669C56.9333 43.0442 56.8081 42.5661 56.8081 42.0324C56.8081 41.4988 56.9333 41.0233 57.1837 40.6006C57.4341 40.178 57.7777 39.8504 58.2146 39.6153C58.6515 39.3828 59.1389 39.2639 59.677 39.2639C60.2151 39.2639 60.6839 39.3802 61.1102 39.6153C61.5364 39.8477 61.864 40.178 62.0931 40.6006V39.3088H62.6232V39.3115ZM60.9343 44.0322C61.294 43.8394 61.5763 43.5699 61.7788 43.2239C61.9812 42.8778 62.0824 42.4815 62.0824 42.0377C62.0824 41.5939 61.9812 41.2003 61.7788 40.8569C61.5763 40.5135 61.294 40.2466 60.9343 40.0538C60.5747 39.8609 60.1698 39.7632 59.7196 39.7632C59.2695 39.7632 58.8672 39.8609 58.5129 40.0538C58.156 40.2466 57.8763 40.5161 57.6738 40.8569C57.4714 41.2003 57.3702 41.5939 57.3702 42.0377C57.3702 42.4815 57.4714 42.8778 57.6738 43.2239C57.8763 43.5699 58.156 43.8394 58.5129 44.0322C58.8699 44.2251 59.2721 44.3228 59.7196 44.3228C60.1672 44.3228 60.5721 44.2251 60.9343 44.0322Z" fill="black"/>
<path d="M64.9169 37.7979C64.829 37.7134 64.7837 37.6104 64.7837 37.4862C64.7837 37.362 64.829 37.2564 64.9169 37.1692C65.0048 37.082 65.1113 37.0371 65.2365 37.0371C65.3617 37.0371 65.4683 37.0794 65.5562 37.1639C65.6441 37.2484 65.6894 37.3515 65.6894 37.4756C65.6894 37.5998 65.6441 37.7055 65.5562 37.7926C65.4683 37.8798 65.3617 37.9247 65.2365 37.9247C65.1113 37.9247 65.0048 37.8825 64.9169 37.7979ZM64.9622 39.3143H65.5136V45.0257H64.9622V39.3143Z" fill="black"/>
<path d="M71.4275 39.8109C71.811 40.1728 72.0002 40.7038 72.0002 41.4038V45.0257H71.4701V44.0086C71.2863 44.3441 71.0172 44.6056 70.6656 44.7905C70.314 44.9755 69.8904 45.0706 69.3976 45.0706C68.7583 45.0706 68.2522 44.92 67.8819 44.6215C67.5117 44.323 67.3252 43.9293 67.3252 43.4406C67.3252 42.9519 67.4957 42.5821 67.8393 42.2862C68.1829 41.9903 68.7264 41.8424 69.4776 41.8424H71.4514V41.3827C71.4514 40.8517 71.3049 40.4449 71.0146 40.1675C70.7242 39.8901 70.298 39.7528 69.7413 39.7528C69.3577 39.7528 68.9927 39.8188 68.6438 39.9509C68.2948 40.083 67.9991 40.2573 67.7567 40.4766L67.4797 40.083C67.7674 39.8267 68.111 39.6286 68.5159 39.486C68.9208 39.3433 69.3444 39.272 69.7839 39.272C70.4978 39.272 71.0439 39.4516 71.4275 39.8135V39.8109ZM70.6949 44.2913C71.0306 44.072 71.2809 43.755 71.4514 43.3402V42.2677H69.4882C68.9208 42.2677 68.5106 42.3707 68.2575 42.5741C68.0045 42.7775 67.8766 43.0602 67.8766 43.4168C67.8766 43.7735 68.0151 44.0826 68.2948 44.2965C68.5745 44.5105 68.9688 44.6188 69.4749 44.6188C69.9517 44.6188 70.3593 44.5105 70.6949 44.2913V44.2913Z" fill="black"/>
</g>
<defs>
<clipPath id="clip0_24_1016">
<rect width="72" height="47.1892" fill="white"/>
</clipPath>
</defs>
</svg>
